<svg xmlns="http://www.w3.org/2000/svg" xmlns:xlink="http://www.w3.org/1999/xlink" viewBox="0,0,256,256" width="50px" height="50px" fill-rule="nonzero"><g fill="#ffffff" fill-rule="nonzero" stroke="none" stroke-width="1" stroke-linecap="butt" stroke-linejoin="miter" stroke-miterlimit="10" stroke-dasharray="" stroke-dashoffset="0" font-family="none" font-weight="none" font-size="none" text-anchor="none" style="mix-blend-mode: normal"><g transform="scale(5.12,5.12)"><path d="M25.244,2c-10.24,0 -18.571,8.594 -18.571,19.157c0,10.865 14.129,26.843 18.571,26.843c4.219,0 18.083,-16.308 18.083,-26.843c0,-10.384 -8.281,-19.157 -18.083,-19.157zM25,30c-5.514,0 -10,-4.486 -10,-10c0,-1.478 0.331,-2.878 0.909,-4.141c0.905,1.291 2.398,2.141 4.091,2.141c2.757,0 5,-2.243 5,-5c0,-1.107 -0.373,-2.121 -0.984,-2.95c0.324,-0.032 0.652,-0.05 0.984,-0.05c5.514,0 10,4.486 10,10c0,5.514 -4.486,10 -10,10z"></path></g></g></svg>